<?xml version="1.0" encoding="iso-8859-1"?>
<!-- Generator: Adobe Illustrator 16.0.0, SVG Export Plug-In . SVG Version: 6.00 Build 0)  -->
<!DOCTYPE svg PUBLIC "-//W3C//DTD SVG 1.1//EN" "http://www.w3.org/Graphics/SVG/1.1/DTD/svg11.dtd">
<svg version="1.1" id="Capa_1" xmlns="http://www.w3.org/2000/svg" xmlns:xlink="http://www.w3.org/1999/xlink" x="0px" y="0px"
	 width="47.002px" height="47.002px" viewBox="0 0 47.002 47.002" style="fill: #fff;"
	 xml:space="preserve">
<g>
	<path d="M45.988,21.437c0.195-0.055,0.396-0.094,0.609-0.094c0.133,0,0.264,0.013,0.389,0.035c-0.002-0.026-0.004-0.054-0.006-0.08
		c-0.133,0.025-0.268,0.04-0.406,0.04c-0.209,0-0.408-0.037-0.602-0.09c-0.965-0.266-1.678-1.14-1.678-2.189
		c0-0.74,0.356-1.392,0.904-1.808c0.268-0.205,0.581-0.35,0.924-0.421c-0.015-0.04-0.023-0.081-0.035-0.121
		c-0.58-0.142-1.074-0.5-1.387-0.99c-0.152-0.241-0.265-0.513-0.316-0.805c-0.025-0.135-0.043-0.273-0.043-0.416
		c0-0.47,0.154-0.896,0.4-1.256c-0.312-0.64-0.648-1.262-1.015-1.867c-0.229,0.249-0.511,0.45-0.83,0.577
		c0.09,0.15,0.176,0.304,0.263,0.456c0.7,0.389,1.184,1.128,1.184,1.986c0,0.113-0.018,0.222-0.033,0.33
		c-0.162,1.103-1.102,1.95-2.248,1.95c-1.258,0-2.279-1.021-2.279-2.28c0-1.259,1.021-2.279,2.279-2.279
		c-1.258,0-2.279-1.021-2.279-2.279c0-0.539,0.195-1.027,0.508-1.418c0.211-0.265,0.48-0.481,0.787-0.632
		c-0.473-0.53-0.973-1.037-1.492-1.521c-0.153,0.305-0.377,0.57-0.646,0.778c-0.385,0.298-0.862,0.482-1.39,0.482
		c-1.258,0-2.278-1.021-2.278-2.28c0-0.315,0.063-0.616,0.183-0.89c0.135-0.316,0.342-0.591,0.598-0.815
		c-0.604-0.379-1.225-0.73-1.861-1.056c-0.354,0.23-0.768,0.373-1.221,0.373c-0.148,0-0.291-0.017-0.432-0.044
		c-0.31-0.059-0.599-0.179-0.851-0.35C31.213,2.14,30.875,1.64,30.75,1.061c-0.033-0.012-0.068-0.024-0.104-0.035
		C30.601,1.37,30.5,1.697,30.319,1.975c-0.407,0.625-1.108,1.04-1.909,1.04c-1.142,0-2.076-0.839-2.244-1.931
		c-0.019-0.115-0.035-0.229-0.035-0.349c0-0.228,0.043-0.443,0.104-0.651c-0.063-0.007-0.125-0.017-0.188-0.023
		c0.05,0.184,0.082,0.373,0.082,0.571c0,0.151-0.018,0.299-0.045,0.441c-0.207,1.048-1.126,1.838-2.233,1.838
		c-1.131,0-2.063-0.824-2.242-1.903c-0.021-0.123-0.039-0.247-0.039-0.376c0-0.222,0.043-0.431,0.102-0.632
		c-0.078,0.006-0.156,0.011-0.234,0.018c0.078,0.229,0.133,0.47,0.133,0.727c0,0.092-0.016,0.18-0.027,0.269
		c-0.135,1.131-1.086,2.011-2.252,2.011c-0.875,0-1.627-0.499-2.008-1.223c-0.154-0.291-0.246-0.619-0.26-0.969
		c-0.01,0.003-0.02,0.006-0.029,0.008c-0.041,0.447-0.207,0.855-0.469,1.191c-0.416,0.537-1.061,0.889-1.793,0.889
		c-0.139,0-0.273-0.018-0.404-0.041c-0.439-0.079-0.826-0.292-1.139-0.584c-0.66,0.322-1.305,0.673-1.93,1.053
		c0.318,0.169,0.59,0.411,0.797,0.704c0.262,0.371,0.42,0.821,0.42,1.311c0,1.26-1.021,2.28-2.281,2.28
		c-0.738,0-1.387-0.356-1.803-0.9C8.18,6.466,8.027,6.14,7.958,5.783c-0.049,0.043-0.1,0.084-0.148,0.128
		c-0.223,0.748-0.814,1.33-1.568,1.538c-0.049,0.053-0.102,0.104-0.15,0.157c0.354,0.083,0.678,0.244,0.949,0.47
		c0.5,0.419,0.826,1.041,0.826,1.745c0,1.259-1.02,2.279-2.279,2.279c1.26,0,2.281,1.021,2.281,2.279c0,1.26-1.021,2.28-2.281,2.28
		c-1.258,0-2.279-1.021-2.279-2.28S4.331,12.1,5.588,12.1c-0.488,0-0.939-0.157-1.311-0.419c-0.287-0.203-0.525-0.473-0.695-0.784
		c-0.367,0.579-0.709,1.175-1.025,1.786c0.287,0.264,0.512,0.593,0.633,0.974c0.07,0.22,0.119,0.449,0.119,0.692
		c0,0.873-0.496,1.622-1.217,2.006c-0.318,0.169-0.676,0.274-1.063,0.274c-0.027,0-0.053-0.009-0.08-0.011
		c-0.002,0.006-0.002,0.011-0.004,0.016c0.012,0,0.023-0.005,0.035-0.005c0.34,0,0.66,0.079,0.949,0.213
		c0.783,0.36,1.33,1.147,1.33,2.067c0,1.236-0.986,2.238-2.215,2.272c-0.021,0.001-0.043,0.007-0.064,0.007
		c-0.33,0-0.637-0.082-0.92-0.209c-0.016,0.154-0.027,0.309-0.041,0.464c0.301-0.147,0.627-0.25,0.984-0.25
		c0.014,0,0.025,0.004,0.039,0.004c1.24,0.021,2.242,1.029,2.242,2.276c0,1.247-1.004,2.258-2.248,2.275
		c-0.01,0.001-0.021,0.004-0.033,0.004c-0.359,0-0.688-0.104-0.988-0.252c0.012,0.15,0.021,0.304,0.037,0.455
		c0.277-0.124,0.58-0.203,0.904-0.203c0.027,0,0.053,0.008,0.082,0.008c1.219,0.045,2.197,1.041,2.197,2.272
		c0,0.917-0.545,1.702-1.326,2.063c-0.291,0.135-0.611,0.215-0.953,0.215c-0.012,0-0.02-0.004-0.031-0.004
		c0.002,0.006,0.004,0.012,0.006,0.018c0.033-0.002,0.063-0.014,0.096-0.014c0.377,0,0.725,0.101,1.037,0.262
		c0.736,0.378,1.244,1.135,1.244,2.019c0,0.259-0.053,0.502-0.133,0.733c-0.127,0.375-0.354,0.697-0.643,0.955
		c0.316,0.611,0.656,1.209,1.021,1.789c0.174-0.31,0.414-0.574,0.703-0.772C4.622,35.047,5.063,34.9,5.538,34.9
		c1.26,0,2.279,1.021,2.279,2.281c0,0.691-0.314,1.305-0.803,1.723c-0.266,0.229-0.586,0.394-0.938,0.481
		c0.063,0.068,0.129,0.134,0.193,0.202c0.678,0.223,1.211,0.748,1.441,1.423c0.076,0.068,0.156,0.134,0.232,0.202
		c0.102-0.339,0.271-0.646,0.504-0.9c0.416-0.455,1.01-0.744,1.674-0.744c1.26,0,2.279,1.021,2.279,2.279
		c0,0.412-0.117,0.795-0.309,1.127c-0.174,0.305-0.424,0.559-0.713,0.754c0.541,0.325,1.1,0.627,1.668,0.909
		c0.293-0.29,0.656-0.51,1.074-0.604c0.164-0.038,0.336-0.063,0.512-0.063c0.785,0,1.479,0.397,1.889,1.003
		c0.227,0.334,0.352,0.735,0.373,1.165c0.016,0.005,0.031,0.009,0.047,0.013c0.033-0.347,0.129-0.674,0.299-0.957
		c0.396-0.668,1.119-1.119,1.951-1.119c1.133,0,2.066,0.828,2.244,1.91c0.02,0.121,0.037,0.244,0.037,0.369
		c0,0.221-0.041,0.429-0.1,0.629c0.082,0.009,0.164,0.014,0.248,0.02c-0.088-0.238-0.148-0.49-0.148-0.76
		c0-0.086,0.016-0.168,0.025-0.252c0.127-1.141,1.082-2.028,2.254-2.028c1.156,0,2.102,0.864,2.25,1.981
		c0.012,0.099,0.028,0.195,0.028,0.299c0,0.255-0.055,0.492-0.133,0.722c0.073-0.008,0.147-0.021,0.224-0.026
		c-0.054-0.189-0.091-0.386-0.091-0.592c0-0.141,0.019-0.277,0.041-0.412c0.195-1.062,1.121-1.867,2.238-1.867
		c0.786,0,1.479,0.397,1.891,1.004c0.188,0.275,0.289,0.603,0.341,0.945c0.022-0.007,0.045-0.016,0.067-0.022
		c0.041-0.462,0.217-0.884,0.492-1.228c0.418-0.52,1.051-0.857,1.771-0.857c0.084,0,0.161,0.016,0.241,0.023
		c0.461,0.051,0.871,0.244,1.207,0.523c0.586-0.303,1.158-0.629,1.713-0.979c-0.262-0.218-0.479-0.485-0.622-0.8
		c-0.134-0.289-0.212-0.606-0.212-0.946c0-1.26,1.021-2.279,2.279-2.279c0.551,0,1.049,0.203,1.442,0.527
		c0.265,0.219,0.476,0.492,0.621,0.805c0.525-0.486,1.027-0.996,1.506-1.528c-0.309-0.147-0.58-0.36-0.795-0.625
		c-0.319-0.394-0.52-0.887-0.52-1.433c0-1.26,1.021-2.28,2.279-2.28c0.307,0,0.598,0.063,0.865,0.172
		c0.317,0.131,0.596,0.337,0.821,0.59c0.351-0.575,0.671-1.17,0.97-1.776c-0.203-0.34-0.328-0.734-0.328-1.161
		c0-1.048,0.711-1.919,1.672-2.188c0.016-0.052,0.029-0.104,0.045-0.153c-0.34-0.078-0.652-0.229-0.918-0.438
		c-0.527-0.418-0.871-1.056-0.871-1.778c0-1.05,0.713-1.924,1.676-2.189c0.193-0.053,0.395-0.092,0.605-0.092
		c0.141,0,0.277,0.017,0.41,0.041c0.002-0.023,0.004-0.049,0.008-0.073c-0.121,0.021-0.244,0.032-0.371,0.032
		c-0.219,0-0.428-0.041-0.627-0.099c-0.953-0.274-1.652-1.142-1.652-2.182C44.318,22.576,45.027,21.704,45.988,21.437z
		 M42.017,16.675c1.258,0,2.278,1.021,2.278,2.28c0,1.259-1.021,2.279-2.278,2.279c-1.261,0-2.281-1.021-2.281-2.279
		C39.734,17.695,40.756,16.675,42.017,16.675z M19.265,34.951c-1.258,0-2.279-1.021-2.279-2.28s1.021-2.278,2.279-2.278
		c1.26,0,2.281,1.021,2.281,2.278C21.545,33.932,20.523,34.951,19.265,34.951z M21.497,37.23c0,1.26-1.021,2.279-2.279,2.279
		c-1.26,0-2.281-1.021-2.281-2.279c0-1.26,1.021-2.279,2.281-2.279C20.476,34.951,21.497,35.972,21.497,37.23z M7.842,23.503
		c0,1.26-1.02,2.28-2.279,2.28s-2.279-1.021-2.279-2.28s1.02-2.279,2.279-2.279S7.842,22.244,7.842,23.503z M7.818,19.043
		c0-1.26,1.02-2.28,2.279-2.28c1.258,0,2.279,1.021,2.279,2.28s-1.021,2.279-2.279,2.279C8.838,21.322,7.818,20.302,7.818,19.043z
		 M10.122,21.327c1.26,0,2.281,1.021,2.281,2.278c0,1.261-1.021,2.28-2.281,2.28c-1.258,0-2.279-1.021-2.279-2.28
		C7.842,22.348,8.863,21.327,10.122,21.327z M16.984,9.869c0-1.26,1.021-2.28,2.281-2.28c1.258,0,2.279,1.021,2.279,2.28
		c0,1.259-1.021,2.279-2.279,2.279c1.258,0,2.279,1.021,2.279,2.279c0,1.26-1.021,2.28-2.279,2.28c-1.26,0-2.281-1.021-2.281-2.28
		c0-1.259,1.021-2.279,2.281-2.279C18.006,12.148,16.984,11.128,16.984,9.869z M21.545,9.757c0-1.26,1.021-2.28,2.279-2.28
		c1.259,0,2.279,1.021,2.279,2.28c0,1.259-1.02,2.279-2.279,2.279c1.259,0,2.281,1.021,2.281,2.279c0,1.26-1.021,2.28-2.281,2.28
		c-1.258,0-2.279-1.021-2.279-2.28c0-1.259,1.021-2.279,2.279-2.279C22.566,12.036,21.545,11.016,21.545,9.757z M30.664,9.702
		c0-1.26,1.021-2.28,2.279-2.28c1.26,0,2.279,1.021,2.279,2.28c0,1.259-1.02,2.279-2.279,2.279c1.26,0,2.281,1.021,2.281,2.279
		c0,1.26-1.021,2.28-2.281,2.28c-1.258,0-2.279-1.021-2.279-2.28c0-1.259,1.021-2.279,2.279-2.279
		C31.687,11.981,30.664,10.961,30.664,9.702z M19.241,25.832c-1.258,0-2.279-1.021-2.279-2.28s1.021-2.279,2.279-2.279
		c1.26,0,2.281,1.021,2.281,2.279C21.521,24.812,20.5,25.832,19.241,25.832z M21.474,28.111c0,1.26-1.021,2.279-2.279,2.279
		c-1.26,0-2.281-1.021-2.281-2.279c0-1.26,1.021-2.279,2.281-2.279C20.452,25.832,21.474,26.854,21.474,28.111z M14.683,25.729
		c-1.26,0-2.279-1.021-2.279-2.279c0-1.259,1.02-2.279,2.279-2.279c1.259,0,2.279,1.021,2.279,2.279
		C16.961,24.708,15.941,25.729,14.683,25.729z M26.058,18.98c0-1.26,1.021-2.28,2.278-2.28c1.259,0,2.279,1.021,2.279,2.28
		c0,1.259-1.021,2.279-2.279,2.279C27.076,21.259,26.058,20.238,26.058,18.98z M26.08,23.439c0,1.261-1.02,2.28-2.279,2.28
		c-1.259,0-2.279-1.021-2.279-2.28c0-1.258,1.02-2.278,2.279-2.278C25.061,21.161,26.08,22.181,26.08,23.439z M23.777,21.155
		c-1.26,0-2.281-1.021-2.281-2.279c0-1.26,1.021-2.28,2.281-2.28c1.258,0,2.279,1.021,2.279,2.28
		C26.058,20.135,25.035,21.155,23.777,21.155z M23.752,25.72c1.26,0,2.279,1.021,2.279,2.28s-1.02,2.279-2.279,2.279
		c-1.258,0-2.279-1.021-2.279-2.279C21.474,26.74,22.495,25.72,23.752,25.72z M23.825,30.279c1.259,0,2.279,1.021,2.279,2.279
		c0,1.26-1.02,2.279-2.279,2.279s-2.279-1.021-2.279-2.279C21.545,31.3,22.564,30.279,23.825,30.279z M26.031,28.104
		c0-1.26,1.021-2.279,2.281-2.279c1.258,0,2.279,1.021,2.279,2.279c0,1.26-1.021,2.279-2.279,2.279
		C27.054,30.383,26.031,29.361,26.031,28.104z M28.359,25.822c-1.258,0-2.279-1.021-2.279-2.279s1.021-2.279,2.279-2.279
		c1.26,0,2.281,1.021,2.281,2.279C30.642,24.803,29.619,25.822,28.359,25.822z M32.871,25.665c1.26,0,2.279,1.021,2.279,2.28
		c0,1.259-1.02,2.279-2.279,2.279c-1.258,0-2.279-1.021-2.279-2.279C30.592,26.686,31.613,25.665,32.871,25.665z M32.92,25.665
		c-1.26,0-2.278-1.021-2.278-2.28c0-1.259,1.021-2.279,2.278-2.279c1.26,0,2.279,1.021,2.279,2.279
		C35.199,24.645,34.181,25.665,32.92,25.665z M35.176,18.925c0-1.26,1.021-2.28,2.279-2.28c1.258,0,2.279,1.021,2.279,2.28
		c0,1.259-1.021,2.279-2.279,2.279C36.195,21.204,35.176,20.184,35.176,18.925z M32.896,21.101c-1.26,0-2.281-1.021-2.281-2.279
		c0-1.26,1.021-2.28,2.281-2.28c1.258,0,2.279,1.021,2.279,2.28C35.176,20.08,34.154,21.101,32.896,21.101z M28.385,12.14
		c1.259,0,2.279,1.021,2.279,2.279c0,1.26-1.021,2.28-2.279,2.28c-1.26,0-2.28-1.021-2.28-2.28S27.125,12.14,28.385,12.14
		c-1.26,0-2.28-1.021-2.28-2.279c0-1.26,1.021-2.28,2.28-2.28c1.259,0,2.279,1.021,2.279,2.28
		C30.664,11.119,29.644,12.14,28.385,12.14z M19.217,16.708c1.258,0,2.279,1.021,2.279,2.28c0,1.259-1.021,2.279-2.279,2.279
		c-1.26,0-2.279-1.021-2.279-2.279C16.938,17.729,17.958,16.708,19.217,16.708z M14.659,21.164c-1.26,0-2.281-1.021-2.281-2.279
		c0-1.26,1.021-2.28,2.281-2.28c1.258,0,2.279,1.021,2.279,2.28C16.938,20.144,15.917,21.164,14.659,21.164z M10.075,25.887
		c1.258,0,2.279,1.021,2.279,2.28s-1.021,2.278-2.279,2.278c-1.26,0-2.281-1.021-2.281-2.278
		C7.793,26.907,8.814,25.887,10.075,25.887z M10.146,30.445c1.26,0,2.281,1.021,2.281,2.279c0,1.26-1.021,2.28-2.281,2.28
		c-1.258,0-2.279-1.021-2.279-2.28C7.866,31.467,8.888,30.445,10.146,30.445z M12.354,28.009c0-1.26,1.021-2.28,2.279-2.28
		c1.26,0,2.279,1.021,2.279,2.28s-1.02,2.279-2.279,2.279C13.375,30.288,12.354,29.268,12.354,28.009z M14.706,30.288
		c1.26,0,2.279,1.021,2.279,2.278c0,1.261-1.02,2.28-2.279,2.28c-1.259,0-2.279-1.021-2.279-2.28
		C12.426,31.309,13.445,30.288,14.706,30.288z M23.775,34.839c1.26,0,2.279,1.021,2.279,2.28c0,1.259-1.02,2.279-2.279,2.279
		c-1.258,0-2.279-1.021-2.279-2.279C21.497,35.859,22.519,34.839,23.775,34.839z M28.336,34.941c1.259,0,2.279,1.021,2.279,2.28
		s-1.021,2.279-2.279,2.279c-1.26,0-2.28-1.021-2.28-2.279S27.076,34.941,28.336,34.941z M28.383,34.941
		c-1.258,0-2.278-1.021-2.278-2.279c0-1.26,1.021-2.279,2.278-2.279c1.261,0,2.281,1.021,2.281,2.279
		C30.664,33.922,29.644,34.941,28.383,34.941z M32.896,34.784c1.26,0,2.278,1.021,2.278,2.28c0,1.258-1.02,2.278-2.278,2.278
		c-1.258,0-2.278-1.021-2.278-2.278C30.615,35.805,31.638,34.784,32.896,34.784z M32.943,34.784c-1.26,0-2.279-1.021-2.279-2.28
		s1.021-2.279,2.279-2.279c1.26,0,2.279,1.021,2.279,2.279C35.224,33.764,34.203,34.784,32.943,34.784z M35.15,28.049
		c0-1.26,1.021-2.279,2.281-2.279c1.258,0,2.279,1.021,2.279,2.279c0,1.26-1.021,2.279-2.279,2.279
		C36.172,30.328,35.15,29.309,35.15,28.049z M37.479,25.77c-1.258,0-2.278-1.021-2.278-2.281c0-1.258,1.021-2.278,2.278-2.278
		c1.26,0,2.28,1.021,2.28,2.278C39.76,24.748,38.738,25.77,37.479,25.77z M37.504,7.525c1.259,0,2.279,1.021,2.279,2.28
		c0,1.259-1.021,2.279-2.279,2.279c1.259,0,2.279,1.021,2.279,2.279c0,1.26-1.021,2.28-2.279,2.28c-1.26,0-2.28-1.021-2.28-2.28
		c0-1.259,1.021-2.279,2.28-2.279c-1.26,0-2.28-1.021-2.28-2.279C35.224,8.546,36.244,7.525,37.504,7.525z M32.707,2.892
		c0.097-0.013,0.188-0.029,0.285-0.029c0.871,0,1.621,0.495,2.004,1.214c0.17,0.319,0.275,0.679,0.275,1.065
		c0,1.26-1.02,2.28-2.279,2.28c-1.259,0-2.279-1.021-2.279-2.28C30.713,3.981,31.584,3.032,32.707,2.892z M28.433,3.021
		c1.26,0,2.28,1.021,2.28,2.279c0,1.26-1.021,2.28-2.28,2.28c-1.259,0-2.279-1.021-2.279-2.28
		C26.152,4.041,27.174,3.021,28.433,3.021z M23.874,2.917c1.259,0,2.279,1.021,2.279,2.279c0,1.26-1.02,2.28-2.279,2.28
		s-2.279-1.021-2.279-2.28C21.595,3.938,22.613,2.917,23.874,2.917z M19.313,3.029c1.26,0,2.281,1.021,2.281,2.279
		c0,1.26-1.021,2.28-2.281,2.28c-1.258,0-2.279-1.021-2.279-2.28C17.034,4.05,18.056,3.029,19.313,3.029z M14.754,2.926
		c1.26,0,2.279,1.021,2.279,2.279c0,1.26-1.02,2.28-2.279,2.28c-1.259,0-2.279-1.021-2.279-2.28
		C12.476,3.946,13.495,2.926,14.754,2.926z M14.706,7.485c1.26,0,2.279,1.021,2.279,2.28c0,1.259-1.02,2.279-2.279,2.279
		c1.26,0,2.281,1.021,2.281,2.279c0,1.26-1.021,2.28-2.281,2.28c-1.258,0-2.279-1.021-2.279-2.28c0-1.259,1.021-2.279,2.279-2.279
		c-1.258,0-2.279-1.021-2.279-2.279C12.426,8.506,13.447,7.485,14.706,7.485z M10.146,12.203c-1.26,0-2.281-1.021-2.281-2.279
		c0-1.26,1.021-2.28,2.281-2.28c1.258,0,2.279,1.021,2.279,2.28C12.426,11.183,11.404,12.203,10.146,12.203
		c1.258,0,2.279,1.021,2.279,2.279c0,1.26-1.021,2.28-2.279,2.28c-1.26,0-2.281-1.021-2.281-2.28
		C7.866,13.224,8.888,12.203,10.146,12.203z M3.258,18.94c0-1.26,1.021-2.28,2.281-2.28c1.258,0,2.279,1.021,2.279,2.28
		c0,1.259-1.021,2.279-2.279,2.279C4.279,21.219,3.258,20.198,3.258,18.94z M3.234,28.064c0-1.261,1.021-2.28,2.279-2.28
		c1.26,0,2.279,1.021,2.279,2.28c0,1.258-1.02,2.278-2.279,2.278C4.256,30.343,3.234,29.322,3.234,28.064z M5.586,34.902
		c-1.26,0-2.279-1.021-2.279-2.28s1.02-2.279,2.279-2.279c1.259,0,2.279,1.021,2.279,2.279C7.866,33.882,6.847,34.902,5.586,34.902z
		 M10.099,39.564c-1.26,0-2.281-1.021-2.281-2.278c0-1.261,1.021-2.28,2.281-2.28c1.258,0,2.279,1.021,2.279,2.28
		S11.355,39.564,10.099,39.564z M12.377,37.128c0-1.26,1.021-2.28,2.279-2.28c1.26,0,2.279,1.021,2.279,2.28
		s-1.02,2.279-2.279,2.279C13.398,39.407,12.377,38.387,12.377,37.128z M14.683,43.972c-1.26,0-2.279-1.021-2.279-2.28
		c0-1.258,1.02-2.278,2.279-2.278c1.258,0,2.279,1.021,2.279,2.278C16.961,42.951,15.939,43.972,14.683,43.972z M19.241,44.075
		c-1.26,0-2.279-1.021-2.279-2.28s1.02-2.279,2.279-2.279c1.259,0,2.279,1.021,2.279,2.279C21.521,43.055,20.5,44.075,19.241,44.075
		z M23.801,43.963c-1.26,0-2.279-1.021-2.279-2.279c0-1.26,1.02-2.279,2.279-2.279c1.258,0,2.279,1.021,2.279,2.279
		C26.08,42.941,25.06,43.963,23.801,43.963z M28.359,44.066c-1.26,0-2.279-1.021-2.279-2.28s1.021-2.279,2.279-2.279
		c1.26,0,2.279,1.021,2.279,2.279C30.64,43.046,29.619,44.066,28.359,44.066z M34.599,43.161c-0.445,0.252-0.896,0.493-1.356,0.715
		c-0.105,0.015-0.212,0.032-0.32,0.032c-1.26,0-2.279-1.021-2.279-2.28s1.02-2.278,2.279-2.278c1.258,0,2.279,1.021,2.279,2.278
		C35.199,42.221,34.967,42.756,34.599,43.161z M37.455,39.447c-1.26,0-2.281-1.021-2.281-2.279c0-1.26,1.021-2.28,2.281-2.28
		c1.258,0,2.279,1.021,2.279,2.28S38.713,39.447,37.455,39.447z M37.502,34.888c-1.258,0-2.278-1.021-2.278-2.28
		c0-1.258,1.021-2.278,2.278-2.278c1.261,0,2.281,1.021,2.281,2.278C39.783,33.867,38.763,34.888,37.502,34.888z M44.308,32.288
		c0.019,0.114,0.034,0.229,0.034,0.35c0,0.868-0.489,1.613-1.202,1.998c-0.32,0.175-0.685,0.282-1.076,0.282
		c-1.26,0-2.278-1.021-2.278-2.28s1.02-2.278,2.278-2.278C43.201,30.357,44.14,31.195,44.308,32.288z M41.99,30.357
		c-1.258,0-2.279-1.021-2.279-2.278c0-1.261,1.021-2.28,2.279-2.28c1.26,0,2.279,1.021,2.279,2.28
		C44.271,29.338,43.25,30.357,41.99,30.357z M42.039,25.799c-1.26,0-2.279-1.021-2.279-2.279c0-1.26,1.021-2.28,2.279-2.28
		c1.26,0,2.279,1.021,2.279,2.28C44.318,24.777,43.299,25.799,42.039,25.799z"/>
</g>
<g>
</g>
<g>
</g>
<g>
</g>
<g>
</g>
<g>
</g>
<g>
</g>
<g>
</g>
<g>
</g>
<g>
</g>
<g>
</g>
<g>
</g>
<g>
</g>
<g>
</g>
<g>
</g>
<g>
</g>
</svg>